<svg width="45" height="15" viewBox="0 0 45 15" fill="none" xmlns="http://www.w3.org/2000/svg">
<path fill-rule="evenodd" clip-rule="evenodd" d="M11.6338 14.5577H7.83737L4.99054 3.6969C4.85542 3.19731 4.56852 2.75563 4.14649 2.54747C3.09328 2.02434 1.9327 1.60801 0.666626 1.39803V0.979894H6.7823C7.62636 0.979894 8.2594 1.60801 8.3649 2.33749L9.84199 10.1718L13.6365 0.979894H17.3274L11.6338 14.5577ZM19.4375 14.5577H15.8521L18.8045 0.979894H22.3898L19.4375 14.5577ZM27.0285 4.74136C27.134 4.01006 27.767 3.59192 28.5055 3.59192C29.6661 3.48694 30.9303 3.69691 31.9854 4.21823L32.6184 1.29486C31.5634 0.876723 30.4028 0.666748 29.3496 0.666748C25.8697 0.666748 23.3376 2.54748 23.3376 5.15769C23.3376 7.14341 25.1312 8.18604 26.3973 8.81416C27.767 9.44046 28.2945 9.85861 28.189 10.4849C28.189 11.4244 27.134 11.8425 26.0807 11.8425C24.8147 11.8425 23.5486 11.5294 22.3899 11.0062L21.7568 13.9314C23.0229 14.4527 24.3926 14.6627 25.6587 14.6627C29.5606 14.7659 31.9854 12.887 31.9854 10.0668C31.9854 6.51529 27.0285 6.30712 27.0285 4.74136ZM44.5333 14.5577L41.6865 0.979894H38.6286C37.9956 0.979894 37.3625 1.39803 37.1515 2.02434L31.8799 14.5577H35.5708L36.3075 12.5738H40.8424L41.2644 14.5577H44.5333ZM39.1562 4.63638L40.2094 9.75363H37.2571L39.1562 4.63638Z" fill="#172B85"/>
</svg>
